<svg xmlns="http://www.w3.org/2000/svg" width="60" height="52" viewBox="0 0 60 52"><g transform="translate(-775 -1678)"><g transform="translate(773 1672)"><path d="M59,32H58V11a5.006,5.006,0,0,0-5-5H11a5.006,5.006,0,0,0-5,5V26H5a3,3,0,0,0-3,3V55a3,3,0,0,0,3,3H43a1,1,0,0,0,1-1,5.006,5.006,0,0,0-5-5H36V46H48v9a3,3,0,0,0,3,3h8a3,3,0,0,0,3-3V35a3,3,0,0,0-3-3ZM24,55a1,1,0,0,1-1,1H5a1,1,0,0,1-1-1V54H24Zm0-3H4V29a1,1,0,0,1,1-1H23a1,1,0,0,1,1,1Zm15,2a3.006,3.006,0,0,1,2.829,2H25.816A2.966,2.966,0,0,0,26,55V54ZM26,52V46h2v6Zm4,0V46h4v6Zm18-8H26V38H48Zm0-9v1H26V29a2.964,2.964,0,0,0-.342-1.361c.015-.014.035-.018.049-.033l9.9-9.9a1,1,0,1,0-1.414-1.414l-9.9,9.9c-.024.025-.034.057-.055.083A2.963,2.963,0,0,0,23,26H8V11a3,3,0,0,1,3-3H53a3,3,0,0,1,3,3V32H51A3,3,0,0,0,48,35ZM60,55a1,1,0,0,1-1,1H51a1,1,0,0,1-1-1V54H60Zm0-3H50V35a1,1,0,0,1,1-1h8a1,1,0,0,1,1,1Z" fill="#fff"/><path d="M13.949,38.172a1,1,0,0,0-1.414,0L8.293,42.414a1,1,0,1,0,1.414,1.414l4.242-4.242a1,1,0,0,0,0-1.414Z" fill="#fff"/><path d="M18.535,38.172l-4.242,4.242a1,1,0,1,0,1.414,1.414l4.242-4.242a1,1,0,1,0-1.414-1.414Z" fill="#fff"/><path d="M40.293,16.293l-9.9,9.9a1,1,0,1,0,1.414,1.414l9.9-9.9a1,1,0,1,0-1.414-1.414Z" fill="#fff"/><path d="M55.707,40.879l-2.828,2.828a1,1,0,1,0,1.414,1.414l2.828-2.828a1,1,0,1,0-1.414-1.414Z" fill="#fff"/><path d="M32.02,42a1,1,0,0,0,0-2h-.01a1,1,0,0,0,.01,2Z" fill="#fff"/><path d="M34,10H30a1,1,0,0,0,0,2h4a1,1,0,0,0,0-2Z" fill="#fff"/></g></g></svg>