<svg xmlns="http://www.w3.org/2000/svg" width="62" height="62" viewBox="0 0 62 62"><g transform="translate(-139 -3438)"><g transform="translate(138 3437)"><path d="M1,1V7H63V1ZM61,5H3V3H61Z" fill="#E97514"/><path d="M59,61H5V9H3V63H61V9H59Z" fill="#E97514"/><path d="M14,34H7V56h4V54H9V36h5v6H30V28H14Zm2-4H28V40H16Z" fill="#E97514"/><path d="M34,28V42H50V36h5V54H53v2h4V34H50V28ZM48,40H36V30H48Z" fill="#E97514"/><rect width="8" height="2" transform="translate(38 32)" fill="#E97514"/><rect width="4" height="2" transform="translate(38 36)" fill="#E97514"/><path d="M35,24h6v2h2V22H35Z" fill="#E97514"/><path d="M21,26h2V24h6V22H21Z" fill="#E97514"/><path d="M24,17h7v7h2V17h7V9H24Zm2-6H38v4H26Z" fill="#E97514"/><path d="M43,44H41v2H35v2h8Z" fill="#E97514"/><path d="M29,46H23V44H21v4h8Z" fill="#E97514"/><path d="M32,59a3.992,3.992,0,0,0,1-7.858V46H31v5.142A3.992,3.992,0,0,0,32,59Zm0-6a2,2,0,1,1-2,2A2,2,0,0,1,32,53Z" fill="#E97514"/><rect width="5" height="2" transform="translate(38 54)" fill="#E97514"/><rect width="5" height="2" transform="translate(21 54)" fill="#E97514"/><rect width="2" height="2" transform="translate(44 36)" fill="#E97514"/><rect width="8" height="2" transform="translate(18 32)" fill="#E97514"/><rect width="4" height="2" transform="translate(22 36)" fill="#E97514"/><rect width="2" height="2" transform="translate(18 36)" fill="#E97514"/><path d="M13,55a3,3,0,1,0,3-3A3,3,0,0,0,13,55Zm4,0a1,1,0,1,1-1-1A1,1,0,0,1,17,55Z" fill="#E97514"/><path d="M45,55a3,3,0,1,0,3-3A3,3,0,0,0,45,55Zm4,0a1,1,0,1,1-1-1A1,1,0,0,1,49,55Z" fill="#E97514"/></g></g></svg>
