<svg xmlns="http://www.w3.org/2000/svg" width="44" height="60" viewBox="0 0 44 60"><g transform="translate(-139 -2039)"><g transform="translate(131 2039)"><path d="M50,60H10a2,2,0,0,1-2-2V2a2,2,0,0,1,2-2H50a2,2,0,0,1,2,2V58A2,2,0,0,1,50,60ZM10,2V58H50V2Z" fill="#fff"/><rect width="42" height="2" transform="translate(9 12)" fill="#fff"/><rect width="5" height="2" transform="translate(12 4)" fill="#fff"/><rect width="5" height="2" transform="translate(12 8)" fill="#fff"/><path d="M39,10H20a1,1,0,0,1-1-1V5a1,1,0,0,1,1-1H39a1,1,0,0,1,1,1V9A1,1,0,0,1,39,10ZM21,8H38V6H21Z" fill="#fff"/><path d="M45,10a3,3,0,1,1,3-3A3,3,0,0,1,45,10Zm0-4a1,1,0,1,0,1,1A1,1,0,0,0,45,6Z" fill="#fff"/><path d="M46,33H22a1,1,0,0,1-1-1V18a1,1,0,0,1,1-1H46a1,1,0,0,1,1,1V32A1,1,0,0,1,46,33ZM23,31H45V19H23Z" fill="#fff"/><path d="M34,27a1,1,0,0,1-.555-.168l-12-8,1.11-1.664L34,24.8l11.445-7.63,1.11,1.664-12,8A1,1,0,0,1,34,27Z" fill="#fff"/><rect width="11.314" height="2" transform="translate(21.293 31.293) rotate(-45)" fill="#fff"/><rect width="2" height="11.314" transform="translate(37.293 24.706) rotate(-45)" fill="#fff"/><rect width="5" height="2" transform="translate(46 25)" fill="#fff"/><rect width="13" height="2" transform="translate(9 25)" fill="#fff"/><rect width="32" height="2" transform="translate(14 48)" fill="#fff"/><rect width="21" height="2" transform="translate(14 53)" fill="#fff"/><path d="M45,45H15a1,1,0,0,1-1-1V38a1,1,0,0,1,1-1H45a1,1,0,0,1,1,1v6A1,1,0,0,1,45,45ZM16,43H44V39H16Z" fill="#fff"/><rect width="2" height="2" transform="translate(44 53)" fill="#fff"/><rect width="5" height="2" transform="translate(37 53)" fill="#fff"/></g></g></svg>