<svg xmlns="http://www.w3.org/2000/svg" width="243" height="243" viewBox="0 0 243 243"><g transform="translate(-1065 -2170)"><g transform="translate(1063 2168)"><path d="M85.025,200.45H83V196.4h24.3v44.55a3.826,3.826,0,0,0,4.05,4.05h121.5a3.826,3.826,0,0,0,4.05-4.05V196.4h4.05a3.826,3.826,0,0,0,4.05-4.05V78.95a3.826,3.826,0,0,0-4.05-4.05H236.9V6.05A3.826,3.826,0,0,0,232.85,2H111.35a3.826,3.826,0,0,0-4.05,4.05V74.9H91.1V30.35a3.826,3.826,0,0,0-4.05-4.05H38.45a3.826,3.826,0,0,0-4.05,4.05V74.9H22.25a3.826,3.826,0,0,0-4.05,4.05V172.1H16.175A14.35,14.35,0,0,0,2,186.275v44.55A14.35,14.35,0,0,0,16.175,245h68.85A14.35,14.35,0,0,0,99.2,230.825v-16.2A14.35,14.35,0,0,0,85.025,200.45ZM228.8,236.9H115.4V196.4H228.8ZM115.4,10.1H228.8V74.9H115.4ZM91.1,176.15V83H236.9V188.3H83v-8.1h4.05A3.826,3.826,0,0,0,91.1,176.15ZM42.5,78.95V34.4H83V172.1H42.5ZM26.3,83h8.1v93.15a3.826,3.826,0,0,0,4.05,4.05H74.9v8.1H26.3ZM91.1,230.825a6.229,6.229,0,0,1-6.075,6.075H16.175a6.229,6.229,0,0,1-6.075-6.075v-44.55a6.229,6.229,0,0,1,6.075-6.075H18.2v12.15a3.826,3.826,0,0,0,4.05,4.05H74.9v4.05H68.825A14.175,14.175,0,1,0,83,214.625V208.55h2.025a6.229,6.229,0,0,1,6.075,6.075ZM74.9,208.55v6.075a6.075,6.075,0,1,1-6.075-6.075Z" transform="translate(0 0)" fill="#f2f3f9"/><path d="M36.05,64.5h97.2a3.826,3.826,0,0,0,4.05-4.05V28.05A3.826,3.826,0,0,0,133.25,24H36.05A3.826,3.826,0,0,0,32,28.05v32.4A3.826,3.826,0,0,0,36.05,64.5ZM40.1,32.1h89.1V56.4H40.1Z" transform="translate(91.5 67.1)" fill="#f2f3f9"/><rect width="16.2" height="8.1" transform="translate(139.7 139.7)" fill="#f2f3f9"/><rect width="16.2" height="8.1" transform="translate(139.7 155.9)" fill="#f2f3f9"/><rect width="16.2" height="8.1" transform="translate(139.7 172.1)" fill="#f2f3f9"/><rect width="16.2" height="8.1" transform="translate(168.05 139.7)" fill="#f2f3f9"/><rect width="16.2" height="8.1" transform="translate(168.05 155.9)" fill="#f2f3f9"/><rect width="16.2" height="8.1" transform="translate(168.05 172.1)" fill="#f2f3f9"/><rect width="16.2" height="8.1" transform="translate(196.4 139.7)" fill="#f2f3f9"/><rect width="16.2" height="8.1" transform="translate(196.4 155.9)" fill="#f2f3f9"/><rect width="16.2" height="8.1" transform="translate(196.4 172.1)" fill="#f2f3f9"/><rect width="8.1" height="8.1" transform="translate(139.7 107.3)" fill="#f2f3f9"/><rect width="8.1" height="8.1" transform="translate(155.9 107.3)" fill="#f2f3f9"/><rect width="8.1" height="8.1" transform="translate(172.1 107.3)" fill="#f2f3f9"/><rect width="8.1" height="8.1" transform="translate(188.3 107.3)" fill="#f2f3f9"/><rect width="8.1" height="8.1" transform="translate(204.5 107.3)" fill="#f2f3f9"/><rect width="89.1" height="8.1" transform="translate(127.55 204.5)" fill="#f2f3f9"/><rect width="89.1" height="8.1" transform="translate(127.55 220.7)" fill="#f2f3f9"/></g></g></svg>