<svg xmlns="http://www.w3.org/2000/svg" width="243" height="243" viewBox="0 0 243 243"><g transform="translate(-58 -1599)"><g transform="translate(58 1599)"><path d="M234.9,243H8.1A8.1,8.1,0,0,1,0,234.9V8.1A8.1,8.1,0,0,1,8.1,0H234.9A8.1,8.1,0,0,1,243,8.1V234.9A8.1,8.1,0,0,1,234.9,243ZM8.1,8.1V234.9H234.9V8.1Z" transform="translate(0 0)" fill="#f2f3f9"/><path d="M167.95,28.3H14.05A4.05,4.05,0,0,1,10,24.25V8.05A4.05,4.05,0,0,1,14.05,4h153.9A4.05,4.05,0,0,1,172,8.05v16.2A4.05,4.05,0,0,1,167.95,28.3ZM18.1,20.2H163.9V12.1H18.1Z" transform="translate(30.5 12.2)" fill="#f2f3f9"/><rect width="12.15" height="8.1" transform="translate(210.6 16.2)" fill="#f2f3f9"/><rect width="12.15" height="8.1" transform="translate(210.6 32.4)" fill="#f2f3f9"/><rect width="12.15" height="8.1" transform="translate(20.25 16.2)" fill="#f2f3f9"/><rect width="12.15" height="8.1" transform="translate(20.25 32.4)" fill="#f2f3f9"/><rect width="234.9" height="8.1" transform="translate(4.05 48.6)" fill="#f2f3f9"/><rect width="8.1" height="16.2" transform="translate(60.75 20.25)" fill="#f2f3f9"/><rect width="8.1" height="16.2" transform="translate(174.15 20.25)" fill="#f2f3f9"/><rect width="8.1" height="16.2" transform="translate(153.9 20.25)" fill="#f2f3f9"/><path d="M175.05,73.5h-162A4.05,4.05,0,0,1,9,69.45V37.05A4.05,4.05,0,0,1,13.05,33h162a4.05,4.05,0,0,1,4.05,4.05v32.4A4.05,4.05,0,0,1,175.05,73.5ZM17.1,65.4H171V41.1H17.1Z" transform="translate(27.45 100.65)" fill="#f2f3f9"/><path d="M175.05,85.5h-162A4.05,4.05,0,0,1,9,81.45V49.05A4.05,4.05,0,0,1,13.05,45h162a4.05,4.05,0,0,1,4.05,4.05v32.4A4.05,4.05,0,0,1,175.05,85.5ZM17.1,77.4H171V53.1H17.1Z" transform="translate(27.45 137.25)" fill="#f2f3f9"/><path d="M64.5,61.5H32.1A8.1,8.1,0,0,1,24,53.4V29.1A8.1,8.1,0,0,1,32.1,21H64.5a8.1,8.1,0,0,1,8.1,8.1V53.4A8.1,8.1,0,0,1,64.5,61.5ZM32.1,29.1V53.4H64.5V29.1Z" transform="translate(73.2 64.05)" fill="#f2f3f9"/><path d="M58.4,37.25H50.3V25.1H34.1V37.25H26V21.05A4.05,4.05,0,0,1,30.05,17h24.3a4.05,4.05,0,0,1,4.05,4.05Z" transform="translate(79.3 51.85)" fill="#f2f3f9"/><rect width="8.1" height="8.1" transform="translate(117.45 101.25)" fill="#f2f3f9"/><rect width="76.95" height="8.1" transform="translate(56.7 149.85)" fill="#f2f3f9"/><rect width="8.1" height="8.1" transform="translate(141.75 149.85)" fill="#f2f3f9"/><rect width="24.3" height="8.1" transform="translate(157.95 149.85)" fill="#f2f3f9"/><rect width="76.95" height="8.1" transform="translate(105.3 198.45)" fill="#f2f3f9"/><rect width="8.1" height="8.1" transform="translate(89.1 198.45)" fill="#f2f3f9"/><rect width="24.3" height="8.1" transform="translate(56.7 198.45)" fill="#f2f3f9"/></g></g></svg>