<svg xmlns="http://www.w3.org/2000/svg" height="512" viewBox="0 0 64 64" width="512" id="admin-icon"><defs><linearGradient id="Gradient2"><stop class="color1" offset="0%"></stop><stop class="color2" offset="50%"></stop></linearGradient><style type="text/css"><![CDATA[ #admin-icon path { fill: url(#Gradient2); } .color1 { stop-color: #fbb615;} .color2 { stop-color: #cb2d2c;} ]]></style></defs><path d="m61.9 54.553-5.9-11.789v-31.764a3 3 0 0 0 -3-3h-10.518c-.222-.268-.456-.528-.7-.777a10.916 10.916 0 0 0 -6.954-3.183 2.98 2.98 0 0 0 -5.657 0 10.986 10.986 0 0 0 -7.65 3.96h-10.521a3 3 0 0 0 -3 3v31.764l-5.895 11.789a1 1 0 0 0 -.105.447v5a2 2 0 0 0 2 2h56a2 2 0 0 0 2-2v-5a1 1 0 0 0 -.1-.447zm-32.9 1.447h6v1h-6zm-24.382-2 5-10h44.764l5 10zm38.327-40h-7.945v-7.941a9 9 0 0 1 7.945 7.941zm1.055 2h1a1 1 0 0 1 0 2h-26a1 1 0 0 1 0-2zm-9.184 16a2.982 2.982 0 0 1 -5.632 0zm-2.816-2a11.01 11.01 0 0 1 -10.949-10h21.9a11.01 11.01 0 0 1 -10.951 10zm-16-13a3 3 0 0 0 3 3h.051a12.993 12.993 0 0 0 6.121 10.042 9.011 9.011 0 0 0 -8.113 7.958h-3.059v-24h5a3 3 0 0 0 -3 3zm10 15h1.1a5 5 0 0 0 9.8 0h1.1a7 7 0 0 1 6.92 6h-25.84a7 7 0 0 1 6.92-6zm20.941 6a9.011 9.011 0 0 0 -8.113-7.958 12.993 12.993 0 0 0 6.121-10.042h.051a3 3 0 0 0 0-6h5v24zm-14.941-34a1 1 0 0 1 1 1v9h-2v-9a1 1 0 0 1 1-1zm-3 2.061v7.939h-7.945a9.014 9.014 0 0 1 7.945-7.939zm-19 4.939a1 1 0 0 1 1-1h9.214a10.974 10.974 0 0 0 -.788 2h-6.426a1 1 0 0 0 -1 1v26a1 1 0 0 0 1 1h38a1 1 0 0 0 1-1v-26a1 1 0 0 0 -1-1h-6.421a10.845 10.845 0 0 0 -.785-2h9.206a1 1 0 0 1 1 1v31h-44zm-6 49v-4h23v1a2 2 0 0 0 2 2h6a2 2 0 0 0 2-2v-1h23v4z"></path><path d="m10 50h2v2h-2z"></path><path d="m14 50h2v2h-2z"></path><path d="m18 50h28v2h-28z"></path><path d="m48 50h2v2h-2z"></path><path d="m52 50h2v2h-2z"></path><path d="m15 46h2v2h-2z"></path><path d="m11 46h2v2h-2z"></path><path d="m19 46h2v2h-2z"></path><path d="m23 46h2v2h-2z"></path><path d="m27 46h2v2h-2z"></path><path d="m31 46h2v2h-2z"></path><path d="m35 46h2v2h-2z"></path><path d="m39 46h2v2h-2z"></path><path d="m43 46h2v2h-2z"></path><path d="m47 46h2v2h-2z"></path><path d="m51 46h2v2h-2z"></path><path d="m32 26a3.969 3.969 0 0 1 -3.2-1.6l-1.6 1.2a6 6 0 0 0 9.6 0l-1.6-1.2a3.969 3.969 0 0 1 -3.2 1.6z"></path><path d="m58 30h2v2h-2z"></path><path d="m4 30h2v2h-2z"></path><path d="m4 24h2v2h-2z"></path><path d="m4 18h2v2h-2z"></path><path d="m58 24h2v2h-2z"></path><path d="m58 18h2v2h-2z"></path><path d="m57 5h2v2h-2z"></path><path d="m5 5h2v2h-2z"></path></svg>