<svg xmlns="http://www.w3.org/2000/svg" height="512" viewBox="0 0 64 64" width="512" id="bill-icon"><defs><linearGradient id="Gradient2"><stop class="color1" offset="0%"></stop><stop class="color2" offset="50%"></stop></linearGradient><style type="text/css"><![CDATA[ #bill-icon path { fill: url(#Gradient2); } .color1 { stop-color: #fbb615;} .color2 { stop-color: #cb2d2c;} ]]></style></defs><path d="m23 53a3 3 0 1 0 3 3 3 3 0 0 0 -3-3zm0 4a1 1 0 1 1 1-1 1 1 0 0 1 -1 1z"></path><path d="m21 5h4v2h-4z"></path><path d="m55 17h-13v-12a3 3 0 0 0 -3-3h-32a3 3 0 0 0 -3 3v54a3 3 0 0 0 3 3h32a3 3 0 0 0 3-3v-13h13a5.006 5.006 0 0 0 5-5v-19a5.006 5.006 0 0 0 -5-5zm3 5v1h-42v-1a3 3 0 0 1 3-3h36a3 3 0 0 1 3 3zm0 6h-42v-3h42zm-51-24h32a1 1 0 0 1 1 1v3h-34v-3a1 1 0 0 1 1-1zm32 56h-32a1 1 0 0 1 -1-1v-7h34v7a1 1 0 0 1 -1 1zm1-10h-34v-40h34v7h-21a5.006 5.006 0 0 0 -5 5v19a5.006 5.006 0 0 0 5 5h21zm15-6h-36a3 3 0 0 1 -3-3v-11h42v11a3 3 0 0 1 -3 3z"></path><path d="m51 34a3.949 3.949 0 0 0 -2 .546 3.949 3.949 0 0 0 -2-.546 4 4 0 0 0 0 8 3.949 3.949 0 0 0 2-.546 3.949 3.949 0 0 0 2 .546 4 4 0 0 0 0-8zm0 6a1.974 1.974 0 0 1 -1.331-.521 1 1 0 0 0 -1.338 0 1.974 1.974 0 0 1 -1.331.521 2 2 0 0 1 0-4 1.974 1.974 0 0 1 1.331.521 1 1 0 0 0 1.338 0 1.974 1.974 0 0 1 1.331-.521 2 2 0 0 1 0 4z"></path><path d="m19 34h4v2h-4z"></path><path d="m19 39h10v2h-10z"></path></svg>