<svg xmlns="http://www.w3.org/2000/svg" height="512" viewBox="0 0 64 64" width="512" id="fax-icon"><defs><linearGradient id="Gradient2"><stop class="color1" offset="0%"></stop><stop class="color2" offset="50%"></stop></linearGradient><style type="text/css"><![CDATA[ #fax-icon path { fill: url(#Gradient2); } .color1 { stop-color: #fbb615;} .color2 { stop-color: #cb2d2c;} ]]></style></defs><path d="m10 19a1 1 0 0 0 -1-1 3 3 0 0 0 -3 3v1a1 1 0 0 0 2 0v-1a1 1 0 0 1 1-1 1 1 0 0 0 1-1z"></path><path d="m57 14h-2v-11a1 1 0 0 0 -1-1h-32a1 1 0 0 0 -1 1v11h-2a4.989 4.989 0 0 0 -4.445 2.758 6.991 6.991 0 0 0 -12.555 4.242v24a7 7 0 0 0 6 6.92v5.08a5.006 5.006 0 0 0 5 5h12a3 3 0 0 0 3-3v-1h29a5.006 5.006 0 0 0 5-5v-33c0-2.774-2.184-6-5-6zm-34-10h30v10h-30zm-7 15a3 3 0 0 1 3-3h38c1.545 0 3 2.253 3 4v8h-44zm-12 26v-24a5 5 0 0 1 10 0v24a5 5 0 0 1 -10 0zm22 14a1 1 0 0 1 -1 1h-12a3 3 0 0 1 -3-3v-5.08a6.98 6.98 0 0 0 4-2.03v3.11a5.006 5.006 0 0 0 5 5h7zm34-6a3 3 0 0 1 -3 3h-38a3 3 0 0 1 -3-3v-23h44z"></path><path d="m27 26h22a1 1 0 0 0 1-1v-6a1 1 0 0 0 -1-1h-22a1 1 0 0 0 -1 1v6a1 1 0 0 0 1 1zm1-6h20v4h-20z"></path><path d="m19 42h16a1 1 0 0 0 1-1v-6a1 1 0 0 0 -1-1h-16a1 1 0 0 0 -1 1v6a1 1 0 0 0 1 1zm1-6h14v4h-14z"></path><path d="m27 44a4 4 0 1 0 4 4 4 4 0 0 0 -4-4zm0 6a2 2 0 1 1 2-2 2 2 0 0 1 -2 2z"></path><path d="m39 40h4a1 1 0 0 0 1-1v-4a1 1 0 0 0 -1-1h-4a1 1 0 0 0 -1 1v4a1 1 0 0 0 1 1zm1-4h2v2h-2z"></path><path d="m46 40h4a1 1 0 0 0 1-1v-4a1 1 0 0 0 -1-1h-4a1 1 0 0 0 -1 1v4a1 1 0 0 0 1 1zm1-4h2v2h-2z"></path><path d="m53 40h4a1 1 0 0 0 1-1v-4a1 1 0 0 0 -1-1h-4a1 1 0 0 0 -1 1v4a1 1 0 0 0 1 1zm1-4h2v2h-2z"></path><path d="m39 47h4a1 1 0 0 0 1-1v-4a1 1 0 0 0 -1-1h-4a1 1 0 0 0 -1 1v4a1 1 0 0 0 1 1zm1-4h2v2h-2z"></path><path d="m46 47h4a1 1 0 0 0 1-1v-4a1 1 0 0 0 -1-1h-4a1 1 0 0 0 -1 1v4a1 1 0 0 0 1 1zm1-4h2v2h-2z"></path><path d="m53 47h4a1 1 0 0 0 1-1v-4a1 1 0 0 0 -1-1h-4a1 1 0 0 0 -1 1v4a1 1 0 0 0 1 1zm1-4h2v2h-2z"></path><path d="m39 54h4a1 1 0 0 0 1-1v-4a1 1 0 0 0 -1-1h-4a1 1 0 0 0 -1 1v4a1 1 0 0 0 1 1zm1-4h2v2h-2z"></path><path d="m46 54h4a1 1 0 0 0 1-1v-4a1 1 0 0 0 -1-1h-4a1 1 0 0 0 -1 1v4a1 1 0 0 0 1 1zm1-4h2v2h-2z"></path><path d="m53 54h4a1 1 0 0 0 1-1v-4a1 1 0 0 0 -1-1h-4a1 1 0 0 0 -1 1v4a1 1 0 0 0 1 1zm1-4h2v2h-2z"></path><path d="m55 25a3 3 0 1 0 -3-3 3 3 0 0 0 3 3zm0-4a1 1 0 1 1 -1 1 1 1 0 0 1 1-1z"></path><path d="m21 25a3 3 0 1 0 -3-3 3 3 0 0 0 3 3zm0-4a1 1 0 1 1 -1 1 1 1 0 0 1 1-1z"></path><path d="m28 6h-2a1 1 0 0 0 0 2h2a1 1 0 0 0 0-2z"></path><path d="m50 6h-18a1 1 0 0 0 0 2h18a1 1 0 0 0 0-2z"></path><path d="m28 10h-2a1 1 0 0 0 0 2h2a1 1 0 0 0 0-2z"></path><path d="m50 10h-18a1 1 0 0 0 0 2h18a1 1 0 0 0 0-2z"></path><path d="m21 54h1a1 1 0 0 0 0-2h-1a1 1 0 0 1 -1-1v-1a1 1 0 0 0 -2 0v1a3 3 0 0 0 3 3z"></path></svg>