<svg xmlns="http://www.w3.org/2000/svg" xmlns:xlink="http://www.w3.org/1999/xlink" viewBox="0 0 26 20"><defs><style>.cls-1{fill:url(#linear-gradient);}</style><linearGradient id="linear-gradient" y1="10" x2="26" y2="10" gradientUnits="userSpaceOnUse"><stop offset="0" stop-color="#fcb614"/><stop offset="1" stop-color="#cb2d2c"/></linearGradient></defs><title>Asset 1</title><g id="Layer_2" data-name="Layer 2"><g id="Layer_1-2" data-name="Layer 1"><path class="cls-1" d="M.3,11a1,1,0,0,1,0-1.4L1.7,8.2a1,1,0,0,1,1.4,0l.1.1,5.5,5.9a.48.48,0,0,0,.7,0L22.8.3h.1a1,1,0,0,1,1.4,0l1.4,1.4a1,1,0,0,1,0,1.4h0L9.7,19.7a1,1,0,0,1-1.4,0L.5,11.3Z"/></g></g></svg>